Genre:Thriller
Language:English
IMDb:http://www.imdb.com/title/tt1645074/
Source:Legend-Rg Thanks!
Encoder:Tony

Format : AVI
Format/Info : Audio Video Interleave
File size : 495 MiB
Duration : 1h 24mn
Overall bit rate : 815 Kbps

Video
ID : 0
Format : MPEG-4 Visual
Format profile : Advanced Simple@L5
Format settings, BVOP : 1
Format settings, QPel : No
Format settings, GMC : No warppoints
Format settings, Matrix : Default (H.263)
Codec ID : XVID
Codec ID/Hint : XviD
Duration : 1h 24mn
Bit rate : 358 Kbps
Width : 640 pixels
Height : 288 pixels
Display aspect ratio : 2.222
Frame rate : 25.000 fps
Color space : YUV
Chroma subsampling : 4:2:0
Bit depth : 8 bits
Scan type : Progressive
Compression mode : Lossy
Bits/(Pixel*Frame) : 0.078
Stream size : 217 MiB (44%)
Writing library : XviD 1.2.1 (UTC 2008-12-04)

Audio
ID : 1
Format : AC-3
Format/Info : Audio Coding 3
Mode extension : CM (complete main)
Codec ID : 2000
Duration : 1h 24mn
Bit rate mode : Constant
Bit rate : 448 Kbps
Channel(s) : 6 channels
Channel positions : Front: L C R, Side: L R, LFE
Sampling rate : 48.0 KHz
Bit depth : 16 bits
Compression mode : Lossy
Stream size : 272 MiB (55%)
Alignment : Aligned on interleaves
Interleave, duration : 40 ms (1.00 video frame)
Interleave, preload duration : 512 ms


Plot:
The plan: Kidnap your wife's lover. Take him to a remote warehouse. Hurt him a little. Scare him a lot. Keep your hands clean - hire a detective for the dirty work. Simple? There's no such thing as simple.